<svg height="40" width="40" viewBox="0 0 24 24" xmlns="http://www.w3.org/2000/svg">
<path d="M12 12C10.9 12 10 11.1 10 10C10 8.9 10.9 8 12 8C13.1 8 14 8.9 14 10C14 11.1 13.1 12 12 12ZM18 10.2C18 6.57 15.35 4 12 4C8.65 4 6 6.57 6 10.2C6 12.54 7.95 15.64 12 19.34C16.05 15.64 18 12.54 18 10.2ZM12 2C16.2 2 20 5.22 20 10.2C20 13.52 17.33 17.45 12 22C6.67 17.45 4 13.52 4 10.2C4 5.22 7.8 2 12 2Z" fill="#000AFF"/>
<path d="M19 10.5C19 14.6421 15.866 18 12 18C8.13401 18 5 14.6421 5 10.5C5 6.35786 8.13401 3 12 3C15.866 3 19 6.35786 19 10.5Z" fill="#000AFF"/>
<path d="M14 19C14 20.1046 13.1046 21 12 21C10.8954 21 10 20.1046 10 19C10 17.8954 10.8954 17 12 17C13.1046 17 14 17.8954 14 19Z" fill="#000AFF"/>
<path d="M12 5.5L6.5 8.5L8.5 9.59V12.59L12 14.5L15.5 12.59V9.59L16.5 9.045V12.5H17.5V8.5L12 5.5ZM15.41 8.5L12 10.36L8.59 8.5L12 6.64L15.41 8.5ZM14.5 11.995L12 13.36L9.5 11.995V10.135L12 11.5L14.5 10.135V11.995Z" fill="white"/>
</svg>
