<svg height="40" width="40" viewBox="0 0 24 24" xmlns="http://www.w3.org/2000/svg">
<path d="M12 12C10.9 12 10 11.1 10 10C10 8.9 10.9 8 12 8C13.1 8 14 8.9 14 10C14 11.1 13.1 12 12 12ZM18 10.2C18 6.57 15.35 4 12 4C8.65 4 6 6.57 6 10.2C6 12.54 7.95 15.64 12 19.34C16.05 15.64 18 12.54 18 10.2ZM12 2C16.2 2 20 5.22 20 10.2C20 13.52 17.33 17.45 12 22C6.67 17.45 4 13.52 4 10.2C4 5.22 7.8 2 12 2Z" fill="#000AFF"/>
<path d="M19 10.5C19 14.6421 15.866 18 12 18C8.13401 18 5 14.6421 5 10.5C5 6.35786 8.13401 3 12 3C15.866 3 19 6.35786 19 10.5Z" fill="#000AFF"/>
<path d="M14 19C14 20.1046 13.1046 21 12 21C10.8954 21 10 20.1046 10 19C10 17.8954 10.8954 17 12 17C13.1046 17 14 17.8954 14 19Z" fill="#000AFF"/>
<path d="M12 5C9.24 5 7 7.24 7 10C7 12.76 9.24 15 12 15C14.76 15 17 12.76 17 10C17 7.24 14.76 5 12 5ZM8.615 7.875C9.05 8.31 9.35 8.87 9.455 9.5H8.035C8.11 8.91 8.315 8.36 8.615 7.875ZM8.035 10.5H9.455C9.35 11.13 9.05 11.69 8.615 12.125C8.315 11.64 8.11 11.09 8.035 10.5ZM11.5 13.965C10.635 13.855 9.855 13.465 9.255 12.895C9.905 12.275 10.35 11.44 10.465 10.5H11.5V13.965ZM11.5 9.5H10.465C10.345 8.56 9.905 7.72 9.25 7.1C9.855 6.53 10.635 6.145 11.5 6.035V9.5ZM15.965 9.5H14.545C14.65 8.87 14.95 8.31 15.385 7.875C15.685 8.36 15.89 8.91 15.965 9.5ZM12.5 6.035C13.365 6.145 14.145 6.53 14.75 7.1C14.095 7.72 13.655 8.56 13.535 9.5H12.5V6.035ZM12.5 13.965V10.5H13.535C13.655 11.44 14.095 12.275 14.745 12.895C14.145 13.465 13.365 13.855 12.5 13.965ZM15.385 12.125C14.95 11.695 14.655 11.13 14.545 10.5H15.965C15.89 11.09 15.685 11.64 15.385 12.125Z" fill="white"/>
</svg>
